<svg xmlns="http://www.w3.org/2000/svg" viewBox="0 0 48 48" width="48" height="48" fill="none"><rect x="1.5" y="1.5" width="45" height="45" rx="13" fill="#EAEEF8"/><path d="M15.5 14 c-1.4 0 -2.5 1.1 -2.5 2.5 c0 9.9 8.1 18 18 18 c1.4 0 2.5 -1.1 2.5 -2.5 v-3 c0 -1.2 -0.9 -2.2 -2.1 -2.4 l-3.3 -0.7 c-1.1 -0.2 -2.2 0.3 -2.7 1.3 l-0.7 1.4 c-3.1 -1.5 -5.6 -4 -7.1 -7.1 l1.4 -0.7 c1 -0.5 1.5 -1.6 1.3 -2.7 l-0.7 -3.3 c-0.2 -1.2 -1.2 -2.1 -2.4 -2.1 z" fill="#2B3475" stroke="none" stroke-width="2.5" stroke-linejoin="round" stroke-linecap="round"/><path d="M30 13 a6 6 0 0 1 6 6" fill="none" stroke="#8495C1" stroke-width="2.4" stroke-linejoin="round" stroke-linecap="round"/><path d="M29.5 8.5 a10.5 10.5 0 0 1 10 10" fill="none" stroke="#8495C1" stroke-width="2.4" stroke-linejoin="round" stroke-linecap="round"/></svg>