<svg xmlns="http://www.w3.org/2000/svg" viewBox="0 0 48 48" width="48" height="48" fill="none"><circle cx="24" cy="24" r="3.4" fill="#8495C1" stroke="none" stroke-width="2.5"/><path d="M24 24 C24 17 20 15 20 20 C20 22 22 24 24 24" fill="none" stroke="#2B3475" stroke-width="2.2" stroke-linejoin="round" stroke-linecap="round"/><path d="M24 24 C24 17 28 15 28 20 C28 22 26 24 24 24" fill="none" stroke="#2B3475" stroke-width="2.2" stroke-linejoin="round" stroke-linecap="round"/><path d="M24 24 C24 31 20 33 20 28 C20 26 22 24 24 24" fill="none" stroke="#2B3475" stroke-width="2.2" stroke-linejoin="round" stroke-linecap="round"/><path d="M24 24 C24 31 28 33 28 28 C28 26 26 24 24 24" fill="none" stroke="#2B3475" stroke-width="2.2" stroke-linejoin="round" stroke-linecap="round"/><path d="M24 24 C17 24 15 20 20 20 C22 20 24 22 24 24" fill="none" stroke="#2B3475" stroke-width="2.2" stroke-linejoin="round" stroke-linecap="round"/><path d="M24 24 C31 24 33 20 28 20 C26 20 24 22 24 24" fill="none" stroke="#2B3475" stroke-width="2.2" stroke-linejoin="round" stroke-linecap="round"/></svg>