<svg xmlns="http://www.w3.org/2000/svg" viewBox="0 0 48 48" width="48" height="48" fill="none"><rect x="1.5" y="1.5" width="45" height="45" rx="13" fill="#EAEEF8"/><circle cx="19" cy="18" r="4" fill="none" stroke="#2B3475" stroke-width="2.5"/><path d="M12 33 c0-5 3-7.5 7-7.5 s7 2.5 7 7.5" fill="none" stroke="#2B3475" stroke-width="2.5" stroke-linejoin="round" stroke-linecap="round"/><path d="M31 30 C31 30 25 26.5 25 22.8 C25 20.9 26.4 20 27.6 20.8 C28.3 21.2 29 22 29 22 C29 22 29.7 21.2 30.4 20.8 C31.6 20 33 20.9 33 22.8 C33 26.5 31 30 31 30 Z" fill="#8495C1" stroke="none" stroke-width="2.5" stroke-linejoin="round" stroke-linecap="round"/></svg>