<svg xmlns="http://www.w3.org/2000/svg" viewBox="0 0 48 48" width="48" height="48" fill="none"><path d="M11 15 h22 a3 3 0 0 1 3 3 v9 a3 3 0 0 1 -3 3 h-12 l-6 5 v-5 h-4 a3 3 0 0 1 -3 -3 v-9 a3 3 0 0 1 3 -3 z" fill="none" stroke="#2B3475" stroke-width="2.5" stroke-linejoin="round" stroke-linecap="round"/><path d="M18 20 c-2 0 -3 1.5 -3 3.5 c0 1.6 1 2.5 2.2 2.5 c1 0 1.8 -0.7 1.8 -1.8 c0 -1.2 -0.8 -1.8 -1.6 -1.8 c0 -1 0.6 -1.6 1.4 -2 z" fill="#8495C1" stroke="none" stroke-width="2.5" stroke-linejoin="round" stroke-linecap="round"/><path d="M26 20 c-2 0 -3 1.5 -3 3.5 c0 1.6 1 2.5 2.2 2.5 c1 0 1.8 -0.7 1.8 -1.8 c0 -1.2 -0.8 -1.8 -1.6 -1.8 c0 -1 0.6 -1.6 1.4 -2 z" fill="#8495C1" stroke="none" stroke-width="2.5" stroke-linejoin="round" stroke-linecap="round"/></svg>